# xmcd
#
# Track frame offsets: 
#        150
#        7837
#        14915
#        33345
#        47645
#        62055
#        79857
#        97542
#        116570
#        133850
#        145797
#        157317
#        165667
#        177502
#        190432
#        201465
#        213667
#
# Disc length: 3026 seconds
#
# Revision: 4
# Processed by: cddbd v1.4PL0 Copyright (c) Steve Scherf et al.
# Submitted via: ExactAudioCopy v0.90b3
#
DISCID=f50bd011
DTITLE=Jerry Clower - The Best Of Jerry Clower
DYEAR=1900
DGENRE=Comedy
TTITLE0=Runaway Truck
TTITLE1=Marcell And The Truck Driver
TTITLE2=Feudin' Stars
TTITLE3=The Grassers
TTITLE4=Grits
TTITLE5=Uncle Versie Saves The Day
TTITLE6=Tater Rides The Moped
TTITLE7=The Chauffer And The Professor
TTITLE8=Top Gum
TTITLE9=Rules According To Clower
TTITLE10=Broad Bottoms
TTITLE11=Horizontal Hitchhiker
TTITLE12=Fox 12...Over
TTITLE13=Marines Are Tough
TTITLE14=Our First Banana
TTITLE15=Catahoula Cur Dog
TTITLE16=U.S.S. Bennington
EXTD=
EXTT0=
EXTT1=
EXTT2=
EXTT3=
EXTT4=
EXTT5=
EXTT6=
EXTT7=
EXTT8=
EXTT9=
EXTT10=
EXTT11=
EXTT12=
EXTT13=
EXTT14=
EXTT15=
EXTT16=
PLAYORDER=
